<svg width="13" height="13" viewBox="0 0 13 13" fill="none" xmlns="http://www.w3.org/2000/svg">
<path d="M0.272743 0.272743C0.35898 0.186287 0.461427 0.117694 0.574215 0.0708918C0.687003 0.02409 0.807916 0 0.930028 0C1.05214 0 1.17305 0.02409 1.28584 0.0708918C1.39863 0.117694 1.50108 0.186287 1.58731 0.272743L6.50024 5.18753L11.4132 0.272743C11.4995 0.186427 11.602 0.117957 11.7147 0.0712433C11.8275 0.0245294 11.9484 0.000486064 12.0705 0.000486064C12.1925 0.000486064 12.3134 0.0245294 12.4262 0.0712433C12.539 0.117957 12.6414 0.186427 12.7277 0.272743C12.8141 0.359059 12.8825 0.46153 12.9292 0.574308C12.976 0.687085 13 0.807959 13 0.930028C13 1.0521 12.976 1.17297 12.9292 1.28575C12.8825 1.39853 12.8141 1.501 12.7277 1.58731L7.81296 6.50024L12.7277 11.4132C12.8141 11.4995 12.8825 11.602 12.9292 11.7147C12.976 11.8275 13 11.9484 13 12.0705C13 12.1925 12.976 12.3134 12.9292 12.4262C12.8825 12.539 12.8141 12.6414 12.7277 12.7277C12.6414 12.8141 12.539 12.8825 12.4262 12.9292C12.3134 12.976 12.1925 13 12.0705 13C11.9484 13 11.8275 12.976 11.7147 12.9292C11.602 12.8825 11.4995 12.8141 11.4132 12.7277L6.50024 7.81296L1.58731 12.7277C1.501 12.8141 1.39853 12.8825 1.28575 12.9292C1.17297 12.976 1.0521 13 0.930028 13C0.807959 13 0.687085 12.976 0.574308 12.9292C0.46153 12.8825 0.359059 12.8141 0.272743 12.7277C0.186427 12.6414 0.117957 12.539 0.0712433 12.4262C0.0245294 12.3134 0.000486064 12.1925 0.000486064 12.0705C0.000486064 11.9484 0.0245294 11.8275 0.0712433 11.7147C0.117957 11.602 0.186427 11.4995 0.272743 11.4132L5.18753 6.50024L0.272743 1.58731C0.186287 1.50108 0.117694 1.39863 0.0708918 1.28584C0.02409 1.17305 0 1.05214 0 0.930028C0 0.807916 0.02409 0.687003 0.0708918 0.574215C0.117694 0.461427 0.186287 0.35898 0.272743 0.272743Z" fill="#FAFAF5"/>
</svg>
