<svg width="26" height="26" viewBox="0 0 26 26" fill="none" xmlns="http://www.w3.org/2000/svg">
<path d="M13.0343 19.1579C9.60422 19.1579 6.86015 16.421 6.86015 13C6.86015 9.57894 9.60422 6.8421 13.0343 6.8421C16.4644 6.8421 19.2084 9.57894 19.2084 13C19.2084 16.421 16.4644 19.1579 13.0343 19.1579ZM13.0343 8.21052C10.3588 8.21052 8.23218 10.3316 8.23218 13C8.23218 15.6684 10.3588 17.7895 13.0343 17.7895C15.7098 17.7895 17.8364 15.6684 17.8364 13C17.8364 10.3316 15.7098 8.21052 13.0343 8.21052Z" fill="#FE4A49"/>
<path d="M14.8865 26H11.1821L10.153 22.8526C9.46702 22.6474 8.781 22.3737 8.16359 22.0316L5.14512 23.5368L2.53826 20.9368L4.04749 17.9263C3.70448 17.3105 3.43008 16.6263 3.22427 15.9421L0 14.8474V11.1526L3.15567 10.1263C3.36148 9.44211 3.63588 8.75789 3.97889 8.14211L2.46966 5.13158L5.07652 2.53158L8.09499 4.03684C8.7124 3.69474 9.39842 3.42105 10.0844 3.21579L11.1821 0H14.8865L15.9156 3.14737C16.6016 3.35263 17.2876 3.62632 17.905 3.96842L20.9235 2.46316L23.5303 5.06316L22.0211 8.07368C22.3641 8.68947 22.6385 9.37368 22.8443 10.0579L26 11.0842V14.7789L22.8443 15.8053C22.6385 16.4895 22.3641 17.1737 22.0211 17.7895L23.5303 20.8L20.9235 23.4L17.905 21.8947C17.2876 22.2368 16.6016 22.5105 15.9156 22.7158L14.8865 26ZM12.1425 24.6316H13.9261L14.8865 21.6895L15.2296 21.6211C16.0528 21.4158 16.8074 21.0737 17.562 20.6632L17.905 20.4579L20.6491 21.8263L21.8839 20.5947L20.5119 17.8579L20.7177 17.5158C21.1293 16.8316 21.4723 16.0105 21.6781 15.1895L21.7467 14.8474L24.6966 13.8895V12.1105L21.7467 11.1526L21.6781 10.8105C21.4723 9.98947 21.1293 9.23684 20.7177 8.48421L20.5119 8.14211L21.8839 5.40526L20.6491 4.17368L17.905 5.54211L17.562 5.33684C16.8074 4.92632 16.0528 4.58421 15.2296 4.37895L14.8865 4.31053L13.9261 1.36842H12.1425L11.1821 4.31053L10.839 4.37895C10.0158 4.58421 9.26121 4.92632 8.5066 5.33684L8.16359 5.54211L5.41952 4.17368L4.1847 5.40526L5.55673 8.14211L5.35092 8.48421C4.93931 9.16842 4.59631 9.98947 4.3905 10.8105L4.3219 11.1526L1.37203 12.1105V13.8895L4.3219 14.8474L4.3905 15.1895C4.59631 16.0105 4.93931 16.7632 5.35092 17.5158L5.55673 17.8579L4.1847 20.5947L5.41952 21.8263L8.16359 20.4579L8.5066 20.6632C9.26121 21.0737 10.0158 21.4158 10.839 21.6211L11.1821 21.6895L12.1425 24.6316Z" fill="#FE4A49"/>
</svg>
