<svg width="32" height="32" viewBox="0 0 32 32" fill="none" xmlns="http://www.w3.org/2000/svg">
<path fill-rule="evenodd" clip-rule="evenodd" d="M15.6474 21.7158L14.7535 18.9543C14.5719 18.3926 14.1286 17.9556 13.5649 17.7832L10.79 16.9299C10.4059 16.8126 10.4028 16.2706 10.7838 16.1471L13.5462 15.2532C14.1068 15.0716 14.5438 14.6283 14.7172 14.0645L15.5695 11.2895C15.6868 10.9064 16.2287 10.9023 16.3522 11.2843L17.2461 14.0458C17.4277 14.6065 17.871 15.0435 18.4347 15.2169L21.2096 16.0692C21.5937 16.1876 21.5978 16.7285 21.2158 16.852L18.4534 17.7459C17.8928 17.9275 17.4558 18.3719 17.2824 18.9356L16.4301 21.7096C16.3128 22.0937 15.7709 22.0978 15.6474 21.7158Z" fill="#74B0FF"/>
<circle cx="16" cy="16" r="15.25" stroke="#74B0FF" stroke-width="1.5"/>
</svg>
