<svg width="13" height="11" viewBox="0 0 13 11" fill="none" xmlns="http://www.w3.org/2000/svg">
<path opacity="0.6" d="M12.5719 4.33218C12.5646 4.33309 12.5575 4.33435 12.55 4.33504C12.5337 4.33653 12.5173 4.33734 12.5008 4.33734H9.50561C9.37322 4.33734 9.24624 4.28902 9.15263 4.20303C9.05901 4.11704 9.00641 4.00041 9.00641 3.87879C9.00641 3.75718 9.05901 3.64055 9.15263 3.55455C9.24624 3.46856 9.37322 3.42025 9.50561 3.42025H11.2956L10.0298 2.25761C9.09294 1.39893 7.82349 0.916689 6.5 0.916689C5.17651 0.916689 3.90706 1.39893 2.97017 2.25761C2.87654 2.34362 2.74955 2.39193 2.61714 2.39193C2.48473 2.39193 2.35774 2.34362 2.26411 2.25761C2.17049 2.17161 2.11789 2.05497 2.11789 1.93334C2.11789 1.81171 2.17049 1.69507 2.26411 1.60906C3.38843 0.57867 4.91179 0 6.5 0C8.08821 0 9.61157 0.57867 10.7359 1.60906L12.0016 2.7717V1.12753C12.0016 1.00592 12.0542 0.889289 12.1478 0.803296C12.2414 0.717302 12.3684 0.668992 12.5008 0.668992C12.6332 0.668992 12.7602 0.717302 12.8538 0.803296C12.9474 0.889289 13 1.00592 13 1.12753V3.87845C13 3.89369 12.9991 3.90894 12.9975 3.92413C12.9969 3.93026 12.9956 3.93622 12.9946 3.9423C12.9933 3.95107 12.9921 3.95984 12.9903 3.96849C12.9888 3.97566 12.9866 3.9826 12.9846 3.9897C12.9827 3.99715 12.9809 4.00461 12.9784 4.01206C12.9761 4.01894 12.9733 4.02564 12.9707 4.0324C12.9678 4.03974 12.9652 4.04714 12.9619 4.05441C12.9591 4.06061 12.9558 4.06651 12.9527 4.07258C12.9489 4.08015 12.9452 4.08772 12.9408 4.09511C12.9376 4.10067 12.9339 4.106 12.9304 4.11139C12.9256 4.11884 12.9211 4.12635 12.9157 4.13363C12.9116 4.13925 12.907 4.14452 12.9026 4.15002C12.8973 4.15661 12.8923 4.16326 12.8866 4.16962C12.8794 4.17771 12.8715 4.18533 12.8637 4.19295C12.8603 4.19622 12.8574 4.19977 12.8538 4.20298C12.8504 4.20608 12.8467 4.20871 12.8433 4.21175C12.8348 4.21903 12.8264 4.22637 12.8174 4.23313C12.8108 4.23818 12.8038 4.24259 12.7969 4.24723C12.7907 4.25147 12.7847 4.25594 12.7782 4.2599C12.7706 4.2646 12.7627 4.26867 12.7549 4.27291C12.7487 4.27629 12.7427 4.27985 12.7363 4.283C12.7285 4.28684 12.7206 4.29005 12.7126 4.29349C12.7058 4.29647 12.699 4.29962 12.6919 4.30231C12.6844 4.30518 12.6766 4.30747 12.669 4.31C12.6613 4.31257 12.6537 4.31527 12.6458 4.31745C12.6382 4.31957 12.6305 4.32111 12.6228 4.32289C12.6147 4.32478 12.6066 4.3269 12.5983 4.32839C12.5896 4.33 12.5807 4.33097 12.5719 4.33218ZM10.0298 8.74233C9.09294 9.60101 7.82349 10.0833 6.5 10.0833C5.17651 10.0833 3.90706 9.60101 2.97017 8.74233L1.70439 7.57969H3.49439C3.62678 7.57969 3.75376 7.53138 3.84738 7.44539C3.94099 7.3594 3.99359 7.24276 3.99359 7.12115C3.99359 6.99954 3.94099 6.88291 3.84738 6.79691C3.75376 6.71092 3.62678 6.66261 3.49439 6.66261H0.499198C0.495454 6.66261 0.491898 6.66307 0.488154 6.66318C0.475486 6.66341 0.462882 6.66375 0.450277 6.6649C0.441666 6.66565 0.433242 6.66708 0.424755 6.66828C0.417143 6.66931 0.409467 6.67012 0.401917 6.67149C0.392869 6.6731 0.384071 6.67539 0.37521 6.67745C0.368346 6.67906 0.361357 6.68043 0.354493 6.68232C0.346069 6.68467 0.337895 6.6876 0.329596 6.69035C0.322482 6.6927 0.315306 6.69482 0.308255 6.69751C0.300767 6.70038 0.293653 6.7037 0.286415 6.70686C0.278865 6.71012 0.271252 6.71316 0.263889 6.71683C0.257212 6.7201 0.25091 6.72382 0.244482 6.72732C0.23687 6.73145 0.229257 6.7354 0.221894 6.73993C0.215217 6.744 0.209039 6.74853 0.202674 6.75294C0.195935 6.75753 0.189071 6.76177 0.182582 6.7667C0.173534 6.77357 0.165047 6.78091 0.156561 6.78831C0.153129 6.79123 0.14951 6.79387 0.146203 6.7969C0.142646 6.80011 0.139713 6.80367 0.136281 6.80693C0.128481 6.81456 0.120619 6.82218 0.11338 6.83026C0.107702 6.83657 0.10271 6.84327 0.0974685 6.84986C0.0931005 6.85531 0.0884205 6.86064 0.0843021 6.86626C0.0789981 6.87354 0.0743181 6.88105 0.0695758 6.8885C0.0660814 6.89394 0.0623998 6.89922 0.059155 6.90478C0.054787 6.91217 0.0511678 6.91973 0.047299 6.9273C0.044179 6.93338 0.0409343 6.93934 0.0381263 6.94547C0.0348815 6.95269 0.0321983 6.96014 0.0293903 6.96748C0.0267072 6.97424 0.0238992 6.98095 0.0215904 6.98783C0.0191568 6.99528 0.0173472 7.00273 0.0153504 7.01018C0.0134784 7.01729 0.011232 7.02423 0.00973438 7.03139C0.00786238 7.04005 0.00667681 7.04882 0.00536641 7.05758C0.00443041 7.06366 0.00318233 7.06962 0.00249593 7.07575C0.000873535 7.09094 0 7.10619 0 7.12144V9.87241C0 9.99402 0.0525939 10.1107 0.146212 10.1966C0.23983 10.2826 0.366803 10.331 0.499198 10.331C0.631594 10.331 0.758567 10.2826 0.852185 10.1966C0.945803 10.1107 0.998397 9.99402 0.998397 9.87241V8.2283L2.26411 9.39094C3.38843 10.4213 4.91179 11 6.5 11C8.08821 11 9.61157 10.4213 10.7359 9.39094C10.8295 9.30493 10.8821 9.18829 10.8821 9.06666C10.8821 8.94503 10.8295 8.82839 10.7359 8.74239C10.6423 8.65638 10.5153 8.60807 10.3829 8.60807C10.2504 8.60807 10.1235 8.65633 10.0298 8.74233Z" fill="#FAFAF5"/>
</svg>
