<svg width="14" height="15" viewBox="0 0 14 15" fill="none" xmlns="http://www.w3.org/2000/svg">
<path d="M13.1538 3.49178C13.174 3.47999 13.1908 3.4631 13.2025 3.44281C13.2141 3.42251 13.2203 3.39952 13.2203 3.37611C13.2203 3.35271 13.2141 3.32971 13.2025 3.30942C13.1908 3.28912 13.174 3.27224 13.1538 3.26044L8.04026 0.289528C7.71307 0.0998771 7.3416 0 6.96342 0C6.58523 0 6.21376 0.0998771 5.88657 0.289528L0.774013 3.26044C0.753798 3.27224 0.737026 3.28912 0.72537 3.30942C0.713714 3.32971 0.707581 3.35271 0.707581 3.37611C0.707581 3.39952 0.713714 3.42251 0.72537 3.44281C0.737026 3.4631 0.753798 3.47999 0.774013 3.49178L6.89663 7.09344C6.91722 7.10557 6.94069 7.11196 6.96459 7.11196C6.98849 7.11196 7.01196 7.10557 7.03255 7.09344L13.1538 3.49178Z" fill="#FAFAF5"/>
<path d="M0.200876 4.40274C0.180455 4.39095 0.157282 4.38476 0.133701 4.3848C0.11012 4.38483 0.0869668 4.3911 0.0665833 4.40295C0.0461997 4.41481 0.0293085 4.43184 0.0176173 4.45232C0.0059262 4.4728 -0.000150146 4.496 2.81822e-06 4.51958V10.3412C0.00050825 10.6218 0.0744494 10.8973 0.214473 11.1404C0.354496 11.3835 0.555722 11.5857 0.798139 11.7269L6.22707 14.9821C6.24742 14.9938 6.2705 15 6.29399 15C6.31749 15 6.34057 14.9938 6.36093 14.9821C6.38128 14.9704 6.39819 14.9535 6.40995 14.9331C6.42171 14.9128 6.42792 14.8897 6.42794 14.8662V8.11186C6.42792 8.08838 6.42172 8.06531 6.40997 8.04498C6.39822 8.02465 6.38132 8.00777 6.36099 7.99602L0.200876 4.40274Z" fill="#FAFAF5"/>
<path d="M7.49927 8.1353V14.8645C7.49929 14.888 7.5055 14.9111 7.51726 14.9315C7.52902 14.9518 7.54593 14.9687 7.56628 14.9804C7.58664 14.9922 7.60972 14.9983 7.63322 14.9983C7.65671 14.9983 7.67979 14.9921 7.70014 14.9804L13.1287 11.7252C13.371 11.5842 13.5721 11.3823 13.7122 11.1395C13.8522 10.8967 13.9264 10.6215 13.9272 10.3412V4.51958C13.9271 4.49612 13.9209 4.47308 13.9091 4.45279C13.8973 4.4325 13.8804 4.41566 13.86 4.40396C13.8397 4.39226 13.8166 4.38612 13.7932 4.38614C13.7697 4.38616 13.7467 4.39235 13.7263 4.40408L7.56623 8.0198C7.54594 8.03151 7.52908 8.04834 7.51733 8.06861C7.50558 8.08888 7.49935 8.11187 7.49927 8.1353Z" fill="#FAFAF5"/>
</svg>
