<svg width="203" height="27" viewBox="0 0 203 27" fill="none" xmlns="http://www.w3.org/2000/svg">
<path d="M8.918 10.768H8.848L8.022 12.406L5.684 16.662L3.346 12.406L2.52 10.768H2.45V19H1.302V9.228H2.87L5.67 14.492H5.74L8.554 9.228H10.066V19H8.918V10.768ZM17.8013 19C17.3813 19 17.078 18.888 16.8913 18.664C16.714 18.44 16.602 18.16 16.5553 17.824H16.4853C16.3267 18.272 16.0653 18.608 15.7013 18.832C15.3373 19.056 14.9033 19.168 14.3993 19.168C13.634 19.168 13.0367 18.972 12.6073 18.58C12.1873 18.188 11.9773 17.656 11.9773 16.984C11.9773 16.3027 12.2247 15.78 12.7193 15.416C13.2233 15.052 14.0027 14.87 15.0573 14.87H16.4853V14.156C16.4853 13.6427 16.3453 13.2507 16.0653 12.98C15.7853 12.7093 15.356 12.574 14.7773 12.574C14.3387 12.574 13.97 12.672 13.6713 12.868C13.382 13.064 13.1393 13.3253 12.9433 13.652L12.2713 13.022C12.4673 12.63 12.78 12.2987 13.2093 12.028C13.6387 11.748 14.18 11.608 14.8333 11.608C15.7107 11.608 16.392 11.8227 16.8773 12.252C17.3627 12.6813 17.6053 13.2787 17.6053 14.044V18.02H18.4313V19H17.8013ZM14.5813 18.216C14.8613 18.216 15.118 18.1833 15.3513 18.118C15.5847 18.0527 15.7853 17.9593 15.9533 17.838C16.1213 17.7167 16.252 17.5767 16.3453 17.418C16.4387 17.2593 16.4853 17.0867 16.4853 16.9V15.71H15.0013C14.3573 15.71 13.886 15.8033 13.5873 15.99C13.298 16.1767 13.1533 16.4473 13.1533 16.802V17.096C13.1533 17.4507 13.2793 17.726 13.5313 17.922C13.7927 18.118 14.1427 18.216 14.5813 18.216ZM24.6498 17.824H24.5938C24.1552 18.72 23.4505 19.168 22.4798 19.168C22.0318 19.168 21.6258 19.0793 21.2618 18.902C20.8978 18.7247 20.5852 18.4727 20.3238 18.146C20.0718 17.8193 19.8758 17.4227 19.7358 16.956C19.6052 16.4893 19.5398 15.9667 19.5398 15.388C19.5398 14.8093 19.6052 14.2867 19.7358 13.82C19.8758 13.3533 20.0718 12.9567 20.3238 12.63C20.5852 12.3033 20.8978 12.0513 21.2618 11.874C21.6258 11.6967 22.0318 11.608 22.4798 11.608C22.9838 11.608 23.4132 11.72 23.7678 11.944C24.1318 12.1587 24.4072 12.4947 24.5938 12.952H24.6498V8.64H25.7698V19H24.6498V17.824ZM22.7878 18.16C23.0398 18.16 23.2778 18.1273 23.5018 18.062C23.7352 17.9967 23.9358 17.9033 24.1038 17.782C24.2718 17.6513 24.4025 17.4973 24.4958 17.32C24.5985 17.1333 24.6498 16.9233 24.6498 16.69V14.002C24.6498 13.806 24.5985 13.624 24.4958 13.456C24.4025 13.2787 24.2718 13.1293 24.1038 13.008C23.9358 12.8867 23.7352 12.7933 23.5018 12.728C23.2778 12.6533 23.0398 12.616 22.7878 12.616C22.1532 12.616 21.6538 12.8167 21.2898 13.218C20.9258 13.61 20.7438 14.128 20.7438 14.772V16.004C20.7438 16.648 20.9258 17.1707 21.2898 17.572C21.6538 17.964 22.1532 18.16 22.7878 18.16ZM30.8669 19.168C30.3723 19.168 29.9243 19.0793 29.5229 18.902C29.1309 18.7247 28.7903 18.4727 28.5009 18.146C28.2209 17.81 28.0016 17.4133 27.8429 16.956C27.6936 16.4893 27.6189 15.9667 27.6189 15.388C27.6189 14.8187 27.6936 14.3007 27.8429 13.834C28.0016 13.3673 28.2209 12.9707 28.5009 12.644C28.7903 12.308 29.1309 12.0513 29.5229 11.874C29.9243 11.6967 30.3723 11.608 30.8669 11.608C31.3523 11.608 31.7863 11.6967 32.1689 11.874C32.5516 12.0513 32.8783 12.2987 33.1489 12.616C33.4196 12.924 33.6249 13.2927 33.7649 13.722C33.9143 14.1513 33.9889 14.6227 33.9889 15.136V15.668H28.7949V16.004C28.7949 16.312 28.8416 16.6013 28.9349 16.872C29.0376 17.1333 29.1776 17.362 29.3549 17.558C29.5416 17.754 29.7656 17.908 30.0269 18.02C30.2976 18.132 30.6009 18.188 30.9369 18.188C31.3943 18.188 31.7909 18.0807 32.1269 17.866C32.4723 17.6513 32.7383 17.3433 32.9249 16.942L33.7229 17.516C33.4896 18.0107 33.1256 18.412 32.6309 18.72C32.1363 19.0187 31.5483 19.168 30.8669 19.168ZM30.8669 12.546C30.5589 12.546 30.2789 12.602 30.0269 12.714C29.7749 12.8167 29.5556 12.966 29.3689 13.162C29.1916 13.358 29.0516 13.5913 28.9489 13.862C28.8463 14.1233 28.7949 14.4127 28.7949 14.73V14.828H32.7849V14.674C32.7849 14.03 32.6076 13.5167 32.2529 13.134C31.9076 12.742 31.4456 12.546 30.8669 12.546ZM39.7031 10.082C39.4605 10.082 39.2831 10.026 39.1711 9.914C39.0685 9.79267 39.0171 9.63867 39.0171 9.452V9.27C39.0171 9.08333 39.0685 8.934 39.1711 8.822C39.2831 8.70067 39.4605 8.64 39.7031 8.64C39.9458 8.64 40.1185 8.70067 40.2211 8.822C40.3331 8.934 40.3891 9.08333 40.3891 9.27V9.452C40.3891 9.63867 40.3331 9.79267 40.2211 9.914C40.1185 10.026 39.9458 10.082 39.7031 10.082ZM39.1431 11.776H40.2631V19H39.1431V11.776ZM42.6431 19V11.776H43.7631V12.952H43.8191C43.9965 12.5413 44.2438 12.2147 44.5611 11.972C44.8878 11.7293 45.3218 11.608 45.8631 11.608C46.6098 11.608 47.1978 11.8507 47.6271 12.336C48.0658 12.812 48.2851 13.4887 48.2851 14.366V19H47.1651V14.562C47.1651 13.2647 46.6191 12.616 45.5271 12.616C45.3031 12.616 45.0838 12.644 44.8691 12.7C44.6638 12.756 44.4771 12.84 44.3091 12.952C44.1411 13.064 44.0058 13.2087 43.9031 13.386C43.8098 13.554 43.7631 13.7547 43.7631 13.988V19H42.6431ZM56.5968 19.168C56.0928 19.168 55.6401 19.0793 55.2388 18.902C54.8374 18.7247 54.4968 18.4727 54.2168 18.146C53.9461 17.8193 53.7361 17.4227 53.5868 16.956C53.4468 16.4893 53.3768 15.9667 53.3768 15.388C53.3768 14.8093 53.4468 14.2867 53.5868 13.82C53.7361 13.3533 53.9461 12.9567 54.2168 12.63C54.4968 12.3033 54.8374 12.0513 55.2388 11.874C55.6401 11.6967 56.0928 11.608 56.5968 11.608C57.3154 11.608 57.8894 11.7667 58.3188 12.084C58.7574 12.392 59.0841 12.798 59.2988 13.302L58.3608 13.778C58.2301 13.4047 58.0154 13.1153 57.7168 12.91C57.4181 12.7047 57.0448 12.602 56.5968 12.602C56.2608 12.602 55.9668 12.658 55.7148 12.77C55.4628 12.8727 55.2528 13.022 55.0848 13.218C54.9168 13.4047 54.7908 13.6333 54.7068 13.904C54.6228 14.1653 54.5808 14.4547 54.5808 14.772V16.004C54.5808 16.6387 54.7488 17.1613 55.0848 17.572C55.4301 17.9733 55.9341 18.174 56.5968 18.174C57.5021 18.174 58.1554 17.754 58.5568 16.914L59.3688 17.46C59.1354 17.9827 58.7854 18.398 58.3188 18.706C57.8614 19.014 57.2874 19.168 56.5968 19.168ZM63.5977 19.168C63.1124 19.168 62.6691 19.0793 62.2677 18.902C61.8664 18.7247 61.5211 18.4727 61.2317 18.146C60.9517 17.81 60.7324 17.4133 60.5737 16.956C60.4151 16.4893 60.3357 15.9667 60.3357 15.388C60.3357 14.8187 60.4151 14.3007 60.5737 13.834C60.7324 13.3673 60.9517 12.9707 61.2317 12.644C61.5211 12.308 61.8664 12.0513 62.2677 11.874C62.6691 11.6967 63.1124 11.608 63.5977 11.608C64.0831 11.608 64.5217 11.6967 64.9137 11.874C65.3151 12.0513 65.6604 12.308 65.9497 12.644C66.2391 12.9707 66.4631 13.3673 66.6217 13.834C66.7804 14.3007 66.8597 14.8187 66.8597 15.388C66.8597 15.9667 66.7804 16.4893 66.6217 16.956C66.4631 17.4133 66.2391 17.81 65.9497 18.146C65.6604 18.4727 65.3151 18.7247 64.9137 18.902C64.5217 19.0793 64.0831 19.168 63.5977 19.168ZM63.5977 18.174C64.2044 18.174 64.6991 17.9873 65.0817 17.614C65.4644 17.2407 65.6557 16.6713 65.6557 15.906V14.87C65.6557 14.1047 65.4644 13.5353 65.0817 13.162C64.6991 12.7887 64.2044 12.602 63.5977 12.602C62.9911 12.602 62.4964 12.7887 62.1137 13.162C61.7311 13.5353 61.5397 14.1047 61.5397 14.87V15.906C61.5397 16.6713 61.7311 17.2407 62.1137 17.614C62.4964 17.9873 62.9911 18.174 63.5977 18.174ZM69.8917 19C69.4997 19 69.2011 18.8927 68.9957 18.678C68.7997 18.454 68.7017 18.174 68.7017 17.838V8.64H69.8217V18.02H70.8857V19H69.8917ZM73.6378 19C73.2458 19 72.9471 18.8927 72.7418 18.678C72.5458 18.454 72.4478 18.174 72.4478 17.838V8.64H73.5678V18.02H74.6318V19H73.6378ZM81.5123 19C81.0923 19 80.7889 18.888 80.6023 18.664C80.4249 18.44 80.3129 18.16 80.2663 17.824H80.1963C80.0376 18.272 79.7763 18.608 79.4123 18.832C79.0483 19.056 78.6143 19.168 78.1103 19.168C77.3449 19.168 76.7476 18.972 76.3183 18.58C75.8983 18.188 75.6883 17.656 75.6883 16.984C75.6883 16.3027 75.9356 15.78 76.4303 15.416C76.9343 15.052 77.7136 14.87 78.7683 14.87H80.1963V14.156C80.1963 13.6427 80.0563 13.2507 79.7763 12.98C79.4963 12.7093 79.0669 12.574 78.4883 12.574C78.0496 12.574 77.6809 12.672 77.3823 12.868C77.0929 13.064 76.8503 13.3253 76.6543 13.652L75.9823 13.022C76.1783 12.63 76.4909 12.2987 76.9203 12.028C77.3496 11.748 77.8909 11.608 78.5443 11.608C79.4216 11.608 80.1029 11.8227 80.5883 12.252C81.0736 12.6813 81.3163 13.2787 81.3163 14.044V18.02H82.1423V19H81.5123ZM78.2923 18.216C78.5723 18.216 78.8289 18.1833 79.0623 18.118C79.2956 18.0527 79.4963 17.9593 79.6643 17.838C79.8323 17.7167 79.9629 17.5767 80.0563 17.418C80.1496 17.2593 80.1963 17.0867 80.1963 16.9V15.71H78.7123C78.0683 15.71 77.5969 15.8033 77.2983 15.99C77.0089 16.1767 76.8643 16.4473 76.8643 16.802V17.096C76.8643 17.4507 76.9903 17.726 77.2423 17.922C77.5036 18.118 77.8536 18.216 78.2923 18.216ZM83.7408 8.64H84.8608V12.952H84.9168C85.1034 12.4947 85.3741 12.1587 85.7288 11.944C86.0928 11.72 86.5268 11.608 87.0308 11.608C87.4788 11.608 87.8848 11.6967 88.2488 11.874C88.6128 12.0513 88.9208 12.3033 89.1728 12.63C89.4341 12.9567 89.6301 13.3533 89.7608 13.82C89.9008 14.2867 89.9708 14.8093 89.9708 15.388C89.9708 15.9667 89.9008 16.4893 89.7608 16.956C89.6301 17.4227 89.4341 17.8193 89.1728 18.146C88.9208 18.4727 88.6128 18.7247 88.2488 18.902C87.8848 19.0793 87.4788 19.168 87.0308 19.168C86.0508 19.168 85.3461 18.72 84.9168 17.824H84.8608V19H83.7408V8.64ZM86.7228 18.16C87.3574 18.16 87.8568 17.964 88.2208 17.572C88.5848 17.1707 88.7668 16.648 88.7668 16.004V14.772C88.7668 14.128 88.5848 13.61 88.2208 13.218C87.8568 12.8167 87.3574 12.616 86.7228 12.616C86.4708 12.616 86.2281 12.6533 85.9948 12.728C85.7708 12.7933 85.5748 12.8867 85.4068 13.008C85.2388 13.1293 85.1034 13.2787 85.0008 13.456C84.9074 13.624 84.8608 13.806 84.8608 14.002V16.69C84.8608 16.9233 84.9074 17.1333 85.0008 17.32C85.1034 17.4973 85.2388 17.6513 85.4068 17.782C85.5748 17.9033 85.7708 17.9967 85.9948 18.062C86.2281 18.1273 86.4708 18.16 86.7228 18.16ZM94.5919 19.168C94.1065 19.168 93.6632 19.0793 93.2619 18.902C92.8605 18.7247 92.5152 18.4727 92.2259 18.146C91.9459 17.81 91.7265 17.4133 91.5679 16.956C91.4092 16.4893 91.3299 15.9667 91.3299 15.388C91.3299 14.8187 91.4092 14.3007 91.5679 13.834C91.7265 13.3673 91.9459 12.9707 92.2259 12.644C92.5152 12.308 92.8605 12.0513 93.2619 11.874C93.6632 11.6967 94.1065 11.608 94.5919 11.608C95.0772 11.608 95.5159 11.6967 95.9079 11.874C96.3092 12.0513 96.6545 12.308 96.9439 12.644C97.2332 12.9707 97.4572 13.3673 97.6159 13.834C97.7745 14.3007 97.8539 14.8187 97.8539 15.388C97.8539 15.9667 97.7745 16.4893 97.6159 16.956C97.4572 17.4133 97.2332 17.81 96.9439 18.146C96.6545 18.4727 96.3092 18.7247 95.9079 18.902C95.5159 19.0793 95.0772 19.168 94.5919 19.168ZM94.5919 18.174C95.1985 18.174 95.6932 17.9873 96.0759 17.614C96.4585 17.2407 96.6499 16.6713 96.6499 15.906V14.87C96.6499 14.1047 96.4585 13.5353 96.0759 13.162C95.6932 12.7887 95.1985 12.602 94.5919 12.602C93.9852 12.602 93.4905 12.7887 93.1079 13.162C92.7252 13.5353 92.5339 14.1047 92.5339 14.87V15.906C92.5339 16.6713 92.7252 17.2407 93.1079 17.614C93.4905 17.9873 93.9852 18.174 94.5919 18.174ZM99.6959 19V11.776H100.816V13.106H100.886C101.017 12.7607 101.25 12.4527 101.586 12.182C101.922 11.9113 102.384 11.776 102.972 11.776H103.406V12.896H102.748C102.141 12.896 101.665 13.0127 101.32 13.246C100.984 13.47 100.816 13.7547 100.816 14.1V19H99.6959ZM110.032 19C109.612 19 109.308 18.888 109.122 18.664C108.944 18.44 108.832 18.16 108.786 17.824H108.716C108.557 18.272 108.296 18.608 107.932 18.832C107.568 19.056 107.134 19.168 106.63 19.168C105.864 19.168 105.267 18.972 104.838 18.58C104.418 18.188 104.208 17.656 104.208 16.984C104.208 16.3027 104.455 15.78 104.95 15.416C105.454 15.052 106.233 14.87 107.288 14.87H108.716V14.156C108.716 13.6427 108.576 13.2507 108.296 12.98C108.016 12.7093 107.586 12.574 107.008 12.574C106.569 12.574 106.2 12.672 105.902 12.868C105.612 13.064 105.37 13.3253 105.174 13.652L104.502 13.022C104.698 12.63 105.01 12.2987 105.44 12.028C105.869 11.748 106.41 11.608 107.064 11.608C107.941 11.608 108.622 11.8227 109.108 12.252C109.593 12.6813 109.836 13.2787 109.836 14.044V18.02H110.662V19H110.032ZM106.812 18.216C107.092 18.216 107.348 18.1833 107.582 18.118C107.815 18.0527 108.016 17.9593 108.184 17.838C108.352 17.7167 108.482 17.5767 108.576 17.418C108.669 17.2593 108.716 17.0867 108.716 16.9V15.71H107.232C106.588 15.71 106.116 15.8033 105.818 15.99C105.528 16.1767 105.384 16.4473 105.384 16.802V17.096C105.384 17.4507 105.51 17.726 105.762 17.922C106.023 18.118 106.373 18.216 106.812 18.216ZM113.856 19C113.464 19 113.166 18.8927 112.96 18.678C112.764 18.454 112.666 18.1647 112.666 17.81V12.756H111.476V11.776H112.148C112.391 11.776 112.554 11.7293 112.638 11.636C112.732 11.5333 112.778 11.3607 112.778 11.118V9.774H113.786V11.776H115.368V12.756H113.786V18.02H115.256V19H113.856ZM117.729 10.082C117.486 10.082 117.309 10.026 117.197 9.914C117.094 9.79267 117.043 9.63867 117.043 9.452V9.27C117.043 9.08333 117.094 8.934 117.197 8.822C117.309 8.70067 117.486 8.64 117.729 8.64C117.971 8.64 118.144 8.70067 118.247 8.822C118.359 8.934 118.415 9.08333 118.415 9.27V9.452C118.415 9.63867 118.359 9.79267 118.247 9.914C118.144 10.026 117.971 10.082 117.729 10.082ZM117.169 11.776H118.289V19H117.169V11.776ZM123.399 19.168C122.913 19.168 122.47 19.0793 122.069 18.902C121.667 18.7247 121.322 18.4727 121.033 18.146C120.753 17.81 120.533 17.4133 120.375 16.956C120.216 16.4893 120.137 15.9667 120.137 15.388C120.137 14.8187 120.216 14.3007 120.375 13.834C120.533 13.3673 120.753 12.9707 121.033 12.644C121.322 12.308 121.667 12.0513 122.069 11.874C122.47 11.6967 122.913 11.608 123.399 11.608C123.884 11.608 124.323 11.6967 124.715 11.874C125.116 12.0513 125.461 12.308 125.751 12.644C126.04 12.9707 126.264 13.3673 126.423 13.834C126.581 14.3007 126.661 14.8187 126.661 15.388C126.661 15.9667 126.581 16.4893 126.423 16.956C126.264 17.4133 126.04 17.81 125.751 18.146C125.461 18.4727 125.116 18.7247 124.715 18.902C124.323 19.0793 123.884 19.168 123.399 19.168ZM123.399 18.174C124.005 18.174 124.5 17.9873 124.883 17.614C125.265 17.2407 125.457 16.6713 125.457 15.906V14.87C125.457 14.1047 125.265 13.5353 124.883 13.162C124.5 12.7887 124.005 12.602 123.399 12.602C122.792 12.602 122.297 12.7887 121.915 13.162C121.532 13.5353 121.341 14.1047 121.341 14.87V15.906C121.341 16.6713 121.532 17.2407 121.915 17.614C122.297 17.9873 122.792 18.174 123.399 18.174ZM128.503 19V11.776H129.623V12.952H129.679C129.856 12.5413 130.103 12.2147 130.421 11.972C130.747 11.7293 131.181 11.608 131.723 11.608C132.469 11.608 133.057 11.8507 133.487 12.336C133.925 12.812 134.145 13.4887 134.145 14.366V19H133.025V14.562C133.025 13.2647 132.479 12.616 131.387 12.616C131.163 12.616 130.943 12.644 130.729 12.7C130.523 12.756 130.337 12.84 130.169 12.952C130.001 13.064 129.865 13.2087 129.763 13.386C129.669 13.554 129.623 13.7547 129.623 13.988V19H128.503ZM139.012 11.776H140.104L140.874 14.898L141.644 18.062H141.672L142.554 14.898L143.464 11.776H144.458L145.396 14.898L146.292 18.062H146.32L147.062 14.898L147.846 11.776H148.896L146.978 19H145.592L144.584 15.528L143.954 13.33H143.926L143.31 15.528L142.302 19H140.944L139.012 11.776ZM151.074 10.082C150.832 10.082 150.654 10.026 150.542 9.914C150.44 9.79267 150.388 9.63867 150.388 9.452V9.27C150.388 9.08333 150.44 8.934 150.542 8.822C150.654 8.70067 150.832 8.64 151.074 8.64C151.317 8.64 151.49 8.70067 151.592 8.822C151.704 8.934 151.76 9.08333 151.76 9.27V9.452C151.76 9.63867 151.704 9.79267 151.592 9.914C151.49 10.026 151.317 10.082 151.074 10.082ZM150.514 11.776H151.634V19H150.514V11.776ZM155.61 19C155.218 19 154.92 18.8927 154.714 18.678C154.518 18.454 154.42 18.1647 154.42 17.81V12.756H153.23V11.776H153.902C154.145 11.776 154.308 11.7293 154.392 11.636C154.486 11.5333 154.532 11.3607 154.532 11.118V9.774H155.54V11.776H157.122V12.756H155.54V18.02H157.01V19H155.61ZM158.922 8.64H160.042V12.952H160.098C160.276 12.5413 160.523 12.2147 160.84 11.972C161.167 11.7293 161.601 11.608 162.142 11.608C162.889 11.608 163.477 11.8507 163.906 12.336C164.345 12.812 164.564 13.4887 164.564 14.366V19H163.444V14.562C163.444 13.2647 162.898 12.616 161.806 12.616C161.582 12.616 161.363 12.644 161.148 12.7C160.943 12.756 160.756 12.84 160.588 12.952C160.42 13.064 160.285 13.2087 160.182 13.386C160.089 13.554 160.042 13.7547 160.042 13.988V19H158.922V8.64Z" fill="#FAFAF5"/>
<g clip-path="url(#clip0)">
<path d="M175.358 19.0007V18.0003C175.091 18.3684 174.736 18.6618 174.327 18.8531C173.918 19.0444 173.467 19.1273 173.017 19.094C172.28 19.1216 171.56 18.8604 171.008 18.3646C170.167 17.5248 170 16.1359 170 14.8308C170 13.5256 170.167 12.1353 171.004 11.2878C171.557 10.7922 172.276 10.5311 173.014 10.5588C173.459 10.5243 173.906 10.6041 174.313 10.7908C174.72 10.9775 175.074 11.2651 175.341 11.6269V6.93213H176.546V19.0007H175.358ZM173.282 11.6434C171.49 11.6434 171.206 13.2089 171.206 14.8308C171.206 16.4526 171.492 18.0168 173.282 18.0168C175.072 18.0168 175.341 16.4585 175.341 14.8312C175.341 13.2039 175.073 11.6434 173.282 11.6434Z" fill="#FAFAF5"/>
<path d="M186.543 17.847C185.728 18.6509 184.634 19.1008 183.495 19.1008C182.357 19.1008 181.263 18.6509 180.447 17.847C179.326 16.7116 179.326 15.525 179.326 12.9664C179.326 10.4078 179.326 9.21932 180.442 8.08395C181.258 7.27996 182.351 6.83008 183.49 6.83008C184.629 6.83008 185.722 7.27996 186.538 8.08395C187.66 9.21932 187.66 10.4059 187.66 12.9664C187.66 15.5268 187.665 16.7116 186.543 17.847ZM185.555 8.84773C185.285 8.57332 184.964 8.35559 184.611 8.20703C184.257 8.05847 183.878 7.98199 183.496 7.98199C183.113 7.98199 182.734 8.05847 182.381 8.20703C182.027 8.35559 181.706 8.57332 181.436 8.84773C180.682 9.62569 180.599 10.4407 180.599 12.9664C180.599 15.492 180.682 16.307 181.436 17.085C181.982 17.6379 182.723 17.9485 183.496 17.9485C184.268 17.9485 185.009 17.6379 185.555 17.085C186.308 16.307 186.392 15.4902 186.392 12.9664C186.392 10.4426 186.307 9.62752 185.555 8.84773Z" fill="#FAFAF5"/>
<path d="M195.048 12.2539C194.874 12.0469 194.655 11.8839 194.407 11.7779C194.16 11.6719 193.892 11.6259 193.624 11.6434C192.42 11.6434 191.644 12.6095 191.644 13.8817V19.0007H190.438V10.6572H191.644V11.6777C191.911 11.3166 192.261 11.0263 192.663 10.8315C193.065 10.6367 193.508 10.5432 193.954 10.5588C194.32 10.536 194.686 10.5937 195.028 10.728C195.37 10.8623 195.679 11.07 195.934 11.3368L195.048 12.2539Z" fill="#FAFAF5"/>
<path d="M199.569 22.8296C199.051 22.8561 198.533 22.7701 198.051 22.5774C197.569 22.3847 197.133 22.0898 196.773 21.7125L197.559 20.9346C197.809 21.2118 198.116 21.43 198.458 21.5736C198.8 21.7172 199.169 21.7828 199.54 21.7656C201.131 21.7656 201.8 20.6284 201.8 19.2139V17.8991C201.535 18.2625 201.185 18.553 200.782 18.7441C200.378 18.9351 199.933 19.0207 199.488 18.9929C198.755 19.0153 198.041 18.748 197.499 18.2474C196.673 17.4017 196.487 16.1258 196.487 14.7644C196.487 13.403 196.668 12.1198 197.494 11.2887C198.045 10.7925 198.765 10.5313 199.503 10.5597C199.948 10.5249 200.394 10.6064 200.798 10.7963C201.203 10.9862 201.552 11.2782 201.813 11.6443V10.6572H203.001V19.2542C203 21.3226 201.727 22.8296 199.569 22.8296ZM199.749 11.6429C197.958 11.6429 197.69 13.203 197.69 14.763C197.69 16.3231 197.958 17.8813 199.749 17.8813C201.541 17.8813 201.793 16.3212 201.793 14.763C201.793 13.2048 201.544 11.6429 199.753 11.6429H199.749Z" fill="#FAFAF5"/>
<path d="M184.222 12.8173L184.16 12.7536L184.096 12.6877C184.031 12.7624 183.951 12.8223 183.862 12.8632C183.772 12.9042 183.675 12.9254 183.576 12.9254C183.478 12.9254 183.381 12.9042 183.291 12.8632C183.202 12.8223 183.122 12.7624 183.057 12.6877L182.994 12.7532L182.931 12.8168C183.006 12.8787 183.067 12.9567 183.108 13.0453C183.15 13.1339 183.172 13.2308 183.172 13.3289C183.172 13.427 183.15 13.5238 183.108 13.6124C183.067 13.701 183.006 13.7791 182.931 13.841L183.057 13.9723C183.122 13.8976 183.202 13.8378 183.292 13.7968C183.381 13.7558 183.479 13.7347 183.577 13.7347C183.675 13.7347 183.772 13.7558 183.862 13.7968C183.952 13.8378 184.032 13.8976 184.097 13.9723L184.223 13.841C184.148 13.7789 184.088 13.7008 184.046 13.6122C184.005 13.5236 183.983 13.4269 183.983 13.3289C183.983 13.2309 184.005 13.1341 184.046 13.0456C184.088 12.957 184.148 12.8789 184.223 12.8168L184.222 12.8173Z" fill="#FAFAF5"/>
<path d="M185.736 12.5563V12.3156C185.734 12.2485 185.727 12.1815 185.717 12.1152C185.708 12.0305 185.686 11.9479 185.65 11.8708C185.616 11.7954 185.569 11.7269 185.511 11.6685C185.451 11.6104 185.38 11.5652 185.302 11.5354C185.219 11.4999 185.129 11.4825 185.038 11.4841C184.947 11.4825 184.856 11.4999 184.772 11.5354C184.695 11.5668 184.625 11.6135 184.567 11.6727C184.509 11.731 184.461 11.7995 184.428 11.8749C184.394 11.9505 184.373 12.0312 184.365 12.1138C184.356 12.1756 184.35 12.2415 184.347 12.3088C184.343 12.376 184.347 12.446 184.347 12.5165V12.5495L185.736 12.5563Z" fill="#FAFAF5"/>
<path d="M185.035 11.4787C185.349 11.4787 185.603 11.2209 185.603 10.903C185.603 10.585 185.349 10.3273 185.035 10.3273C184.72 10.3273 184.466 10.585 184.466 10.903C184.466 11.2209 184.72 11.4787 185.035 11.4787Z" fill="#FAFAF5"/>
<path d="M182.863 12.5564V12.3157C182.862 12.2504 182.856 12.1853 182.847 12.1207C182.838 12.0363 182.817 11.9538 182.782 11.8764C182.747 11.8013 182.7 11.7329 182.642 11.6741C182.583 11.6154 182.514 11.5687 182.438 11.5368C182.316 11.4836 182.18 11.4682 182.049 11.4926C181.917 11.517 181.796 11.5802 181.7 11.6741C181.643 11.7329 181.596 11.8014 181.561 11.8764C181.525 11.9517 181.501 12.0323 181.489 12.1152C181.489 12.177 181.477 12.2429 181.471 12.3102C181.466 12.3775 181.471 12.4475 181.471 12.518V12.5509L182.863 12.5564Z" fill="#FAFAF5"/>
<path d="M182.159 11.4787C182.473 11.4787 182.728 11.2209 182.728 10.903C182.728 10.585 182.473 10.3273 182.159 10.3273C181.845 10.3273 181.591 10.585 181.591 10.903C181.591 11.2209 181.845 11.4787 182.159 11.4787Z" fill="#FAFAF5"/>
<path d="M182.863 15.8252V15.5845C182.862 15.5198 182.856 15.4553 182.847 15.3914C182.839 15.3063 182.817 15.2232 182.782 15.1452C182.747 15.0701 182.7 15.0017 182.642 14.9429C182.583 14.8847 182.514 14.8382 182.438 14.8056C182.316 14.7524 182.18 14.737 182.049 14.7614C181.917 14.7858 181.796 14.849 181.7 14.9429C181.643 15.0017 181.596 15.0701 181.561 15.1452C181.524 15.2245 181.5 15.3095 181.489 15.3969C181.489 15.4568 181.477 15.5227 181.471 15.59C181.466 15.6572 181.471 15.7273 181.471 15.7996V15.8307L182.863 15.8252Z" fill="#FAFAF5"/>
<path d="M182.159 14.7466C182.473 14.7466 182.728 14.4889 182.728 14.1709C182.728 13.853 182.473 13.5952 182.159 13.5952C181.845 13.5952 181.591 13.853 181.591 14.1709C181.591 14.4889 181.845 14.7466 182.159 14.7466Z" fill="#FAFAF5"/>
<path d="M185.684 15.8242V15.5835C185.681 15.5206 185.674 15.4579 185.663 15.3959C185.655 15.3106 185.632 15.2273 185.596 15.1497C185.563 15.0743 185.516 15.0057 185.458 14.9474C185.398 14.8888 185.329 14.8422 185.252 14.8101C185.168 14.7761 185.078 14.7593 184.988 14.7607C184.897 14.7593 184.806 14.7761 184.722 14.8101C184.645 14.8422 184.575 14.8888 184.516 14.9474C184.458 15.0057 184.411 15.0743 184.378 15.1497C184.342 15.2274 184.32 15.3107 184.313 15.3959C184.313 15.4558 184.298 15.5217 184.295 15.589C184.291 15.6563 184.295 15.7263 184.295 15.7986V15.8297L185.684 15.8242Z" fill="#FAFAF5"/>
<path d="M184.982 14.7466C185.296 14.7466 185.551 14.4889 185.551 14.1709C185.551 13.853 185.296 13.5952 184.982 13.5952C184.668 13.5952 184.413 13.853 184.413 14.1709C184.413 14.4889 184.668 14.7466 184.982 14.7466Z" fill="#FAFAF5"/>
</g>
<defs>
<clipPath id="clip0">
<rect width="33" height="16" fill="white" transform="translate(170 6.83008)"/>
</clipPath>
</defs>
</svg>
