<svg width="12" height="15" viewBox="0 0 12 15" fill="none" xmlns="http://www.w3.org/2000/svg">
<path d="M11.8304 6.42857H7.14288C6.71663 6.42857 6.30785 6.25925 6.00645 5.95785C5.70506 5.65645 5.53573 5.24767 5.53573 4.82143V0.133929C5.53573 0.0984085 5.52162 0.0643433 5.49651 0.0392268C5.47139 0.0141103 5.43732 0 5.4018 0H2.32145C1.75313 0 1.20808 0.225765 0.806217 0.627628C0.404353 1.02949 0.178589 1.57454 0.178589 2.14286V12.8571C0.178589 13.4255 0.404353 13.9705 0.806217 14.3724C1.20808 14.7742 1.75313 15 2.32145 15H9.82145C10.3898 15 10.9348 14.7742 11.3367 14.3724C11.7385 13.9705 11.9643 13.4255 11.9643 12.8571V6.5625C11.9643 6.52698 11.9502 6.49291 11.9251 6.4678C11.9 6.44268 11.8659 6.42857 11.8304 6.42857ZM8.75002 11.7857H3.39287C3.25079 11.7857 3.11453 11.7293 3.01407 11.6288C2.9136 11.5283 2.85716 11.3921 2.85716 11.25C2.85716 11.1079 2.9136 10.9717 3.01407 10.8712C3.11453 10.7707 3.25079 10.7143 3.39287 10.7143H8.75002C8.8921 10.7143 9.02836 10.7707 9.12883 10.8712C9.22929 10.9717 9.28573 11.1079 9.28573 11.25C9.28573 11.3921 9.22929 11.5283 9.12883 11.6288C9.02836 11.7293 8.8921 11.7857 8.75002 11.7857ZM8.75002 9.10714H3.39287C3.25079 9.10714 3.11453 9.0507 3.01407 8.95024C2.9136 8.84977 2.85716 8.71351 2.85716 8.57143C2.85716 8.42935 2.9136 8.29309 3.01407 8.19262C3.11453 8.09215 3.25079 8.03571 3.39287 8.03571H8.75002C8.8921 8.03571 9.02836 8.09215 9.12883 8.19262C9.22929 8.29309 9.28573 8.42935 9.28573 8.57143C9.28573 8.71351 9.22929 8.84977 9.12883 8.95024C9.02836 9.0507 8.8921 9.10714 8.75002 9.10714Z" fill="#FAFAF5"/>
</svg>
