<svg width="12" height="11" viewBox="0 0 12 11" fill="none" xmlns="http://www.w3.org/2000/svg">
<path d="M10.0893 0.285706H6.60716V5.42086L8.37133 3.65702C8.47262 3.5608 8.60748 3.50794 8.74718 3.50973C8.88687 3.51152 9.02034 3.56781 9.11913 3.6666C9.21791 3.76538 9.2742 3.89885 9.27599 4.03854C9.27778 4.17824 9.22493 4.31311 9.1287 4.41439L6.45013 7.09296C6.34967 7.19335 6.21347 7.24974 6.07145 7.24974C5.92943 7.24974 5.79322 7.19335 5.69276 7.09296L3.01419 4.41439C2.91797 4.31311 2.86511 4.17824 2.8669 4.03854C2.86869 3.89885 2.92498 3.76538 3.02377 3.6666C3.12255 3.56781 3.25602 3.51152 3.39571 3.50973C3.53541 3.50794 3.67027 3.5608 3.77156 3.65702L5.53573 5.42086V0.285706H2.05359C1.55647 0.286237 1.07987 0.483952 0.728351 0.835467C0.376836 1.18698 0.179121 1.66359 0.178589 2.16071V9.12499C0.179121 9.62211 0.376836 10.0987 0.728351 10.4502C1.07987 10.8017 1.55647 10.9995 2.05359 11H10.0893C10.5864 10.9995 11.063 10.8017 11.4145 10.4502C11.7661 10.0987 11.9638 9.62211 11.9643 9.12499V2.16071C11.9638 1.66359 11.7661 1.18698 11.4145 0.835467C11.063 0.483952 10.5864 0.286237 10.0893 0.285706Z" fill="#FAFAF5"/>
</svg>
