<svg width="15" height="15" viewBox="0 0 15 15" fill="none" xmlns="http://www.w3.org/2000/svg">
<path d="M7.5 0C3.35826 0 0 3.44531 0 7.69085C0 11.0893 2.14955 13.9687 5.12946 14.9866C5.17126 14.9957 5.21392 15.0002 5.25669 15C5.5346 15 5.64174 14.7958 5.64174 14.6183C5.64174 14.4341 5.63504 13.952 5.63169 13.3091C5.38361 13.3673 5.12981 13.3976 4.875 13.3995C3.43192 13.3995 3.10379 12.2779 3.10379 12.2779C2.76228 11.3906 2.27009 11.1529 2.27009 11.1529C1.61719 10.6942 2.26674 10.6808 2.31696 10.6808H2.32031C3.07366 10.7478 3.46875 11.4777 3.46875 11.4777C3.84375 12.1339 4.34598 12.3181 4.79464 12.3181C5.0913 12.3121 5.38338 12.2437 5.65178 12.1172C5.71875 11.6216 5.91294 11.2835 6.12723 11.0893C4.46317 10.8951 2.71205 10.2355 2.71205 7.28906C2.71205 6.44866 3.00335 5.76227 3.48214 5.22656C3.40513 5.03236 3.14732 4.24888 3.5558 3.19085C3.61059 3.17774 3.66691 3.1721 3.72321 3.17411C3.99442 3.17411 4.60714 3.2779 5.6183 3.98103C6.84694 3.63727 8.14636 3.63727 9.375 3.98103C10.3862 3.2779 10.9989 3.17411 11.2701 3.17411C11.3264 3.1721 11.3827 3.17774 11.4375 3.19085C11.846 4.24888 11.5882 5.03236 11.5112 5.22656C11.99 5.76562 12.2812 6.45201 12.2812 7.28906C12.2812 10.2422 10.5268 10.8917 8.85602 11.0826C9.12388 11.3203 9.36495 11.7891 9.36495 12.5056C9.36495 13.5335 9.35491 14.3638 9.35491 14.615C9.35491 14.7958 9.4587 15 9.7366 15C9.78159 15.0002 9.82648 14.9957 9.87053 14.9866C12.8538 13.9687 15 11.0859 15 7.69085C15 3.44531 11.6417 0 7.5 0Z" fill="#FAFAF5"/>
</svg>
