<svg width="15" height="15" viewBox="0 0 15 15" fill="none" xmlns="http://www.w3.org/2000/svg">
<path fill-rule="evenodd" clip-rule="evenodd" d="M7.01946 14.6124L5.80057 10.8467C5.55282 10.0809 4.94833 9.48486 4.17962 9.24986L0.395519 8.08618C-0.128281 7.92621 -0.132528 7.18722 0.387025 7.01876L4.15414 5.79986C4.9186 5.55212 5.5146 4.94763 5.75102 4.17891L6.91329 0.394811C7.07326 -0.127573 7.81224 -0.133236 7.98071 0.387733L9.1996 4.15343C9.44735 4.91789 10.0518 5.51389 10.8206 5.75031L14.6047 6.91258C15.1285 7.07397 15.1341 7.81154 14.6131 7.98L10.846 9.1989C10.0816 9.44664 9.48557 10.0526 9.24915 10.8213L8.08688 14.6039C7.92691 15.1277 7.18793 15.1334 7.01946 14.6124Z" fill="#FAFAF5"/>
</svg>
