<svg width="103" height="103" viewBox="0 0 103 103" fill="none" xmlns="http://www.w3.org/2000/svg">
<g opacity="0.7">
<path d="M51.5014 101.25C78.9779 101.25 101.251 78.9764 101.251 51.5C101.251 24.0236 78.9779 1.75 51.5014 1.75C24.025 1.75 1.75 24.0235 1.75 51.5C1.75 78.9765 24.025 101.25 51.5014 101.25Z" fill="#29296E" stroke="#FAFAF5" stroke-width="2.5"/>
<path fill-rule="evenodd" clip-rule="evenodd" d="M74.0705 38.532L72.8372 34.7218C72.5865 33.9469 71.9748 33.3438 71.197 33.106L67.3682 31.9286C66.8382 31.7667 66.8339 31.019 67.3596 30.8486L71.1713 29.6152C71.9448 29.3646 72.5478 28.7529 72.787 27.9751L73.963 24.1463C74.1249 23.6177 74.8726 23.612 75.0431 24.1391L76.2764 27.9494C76.527 28.7229 77.1387 29.3259 77.9165 29.5651L81.7453 30.7411C82.2753 30.9044 82.281 31.6507 81.7539 31.8212L77.9423 33.0545C77.1688 33.3051 76.5657 33.9182 76.3265 34.696L75.1505 38.5234C74.9886 39.0534 74.2409 39.0591 74.0705 38.532Z" fill="#FAFAFA"/>
<path fill-rule="evenodd" clip-rule="evenodd" d="M7.41064 50.7316C8.56374 48.4727 10.8441 46.771 13.2133 45.6952C15.6069 44.631 18.2382 43.9778 20.8223 43.7658C26.0391 43.2945 31.1213 44.1668 35.7509 45.6752C38.1359 46.3857 40.2701 47.3726 42.4746 48.3695C43.5461 48.8852 44.5531 49.4696 45.5901 50.034L48.4549 51.6942C51.6005 53.6222 54.6501 55.3296 57.5149 56.656C60.3869 57.971 62.9824 58.8605 65.429 59.3146C67.8756 59.7744 70.3622 59.7687 73.4204 59.0668C76.4543 58.3807 79.8677 56.901 83.4358 55.003C87.0255 53.1037 90.7068 50.7746 94.9066 48.4985C94.4855 53.2555 93.139 57.716 91.0362 62.0233C88.8819 66.279 85.8853 70.4301 81.5164 73.792C77.2306 77.1811 71.3449 79.5431 65.3531 79.8983C59.3585 80.3037 53.656 78.983 48.8044 76.9963C43.9342 74.9809 39.7258 72.3323 35.9958 69.4088C34.9659 68.6009 34.413 68.1425 33.6524 67.4994L31.5281 65.6387C30.0972 64.5185 28.7106 63.1792 27.2939 62.0691C24.4678 59.7071 21.6717 57.3407 18.6064 55.2895C17.0608 54.2467 15.4665 53.2798 13.6588 52.4233C12.7607 52.0093 11.8067 51.624 10.7825 51.3203C9.73401 50.978 8.6683 50.7746 7.41064 50.7316Z" fill="#FF4F0A"/>
<path fill-rule="evenodd" clip-rule="evenodd" d="M7.41064 50.7315C7.99937 45.837 10.2812 41.2461 13.9381 37.3385C17.5765 33.4681 23.2603 30.4844 29.5672 30.089C32.6798 29.8813 35.8397 30.228 38.7446 31.033C41.6367 31.8352 44.3468 33.004 46.7891 34.3805C48.0095 35.0724 49.1511 35.8287 50.2884 36.5922L53.3194 38.8869L58.0507 42.6198C61.1217 45.0649 64.0525 47.3267 66.7611 49.1945C69.4956 51.0653 71.8247 52.4318 74.0493 53.2325C76.2537 54.1063 79.0383 54.3297 82.7196 53.4044C84.5474 52.9833 86.4539 52.2141 88.488 51.3804C90.5105 50.5267 92.6104 49.5082 94.9066 48.4984C94.6301 50.9593 94.1302 53.4101 93.1805 55.7005C92.2681 58.0225 91.0663 60.2943 89.3861 62.4128C88.5266 63.4442 87.6056 64.4812 86.5313 65.4381C85.457 66.372 84.2666 67.2587 82.9517 68.0365C80.3289 69.5563 77.2178 70.6664 74.0263 71.0617C70.8349 71.4628 67.6306 71.2623 64.7128 70.6435C61.7792 70.0418 59.1063 69.0721 56.6526 67.952C51.7624 65.6773 47.6714 62.8182 44.0546 59.7915C42.2383 58.2803 40.5351 56.7018 38.9222 55.0989L37.0171 53.1867C36.4427 52.6323 35.8626 52.0751 35.2882 51.5652C32.9734 49.5183 30.8248 47.9541 28.4585 46.9786C26.1093 45.9573 23.1027 45.5376 19.4142 46.228C15.7401 46.9113 11.7093 48.4998 7.41064 50.7315Z" fill="#FAFAFA"/>
<path fill-rule="evenodd" clip-rule="evenodd" d="M26.7941 75.9716C26.7941 77.4198 25.6195 78.5944 24.1714 78.5944C22.7232 78.5944 21.55 77.4198 21.55 75.9716C21.55 74.5235 22.7232 73.3489 24.1714 73.3489C25.6195 73.3489 26.7941 74.5235 26.7941 75.9716Z" fill="#FAFAFA"/>
<path fill-rule="evenodd" clip-rule="evenodd" d="M26.7941 75.9716C26.7941 77.4198 25.6195 78.5944 24.1714 78.5944C22.7232 78.5944 21.55 77.4198 21.55 75.9716C21.55 74.5235 22.7232 73.3489 24.1714 73.3489C25.6195 73.3489 26.7941 74.5235 26.7941 75.9716Z" fill="#FAFAFA"/>
</g>
</svg>
