<svg width="387" height="387" viewBox="0 0 387 387" fill="none" xmlns="http://www.w3.org/2000/svg">
    <path fill-rule="evenodd" clip-rule="evenodd" d="M387 193.497C387 300.364 300.369 386.994 193.503 386.994C86.6362 386.994 0 300.364 0 193.497C0 86.6305 86.6362 0 193.503 0C300.369 0 387 86.6305 387 193.497Z" fill="#29296E"/>
    <path fill-rule="evenodd" clip-rule="evenodd" d="M283.545 141.76L278.624 126.559C277.624 123.467 275.184 121.061 272.081 120.112L256.805 115.415C254.691 114.769 254.673 111.786 256.771 111.106L271.978 106.185C275.064 105.185 277.47 102.745 278.424 99.6419L283.116 84.3662C283.762 82.2575 286.745 82.2346 287.425 84.3377L292.345 99.539C293.345 102.625 295.786 105.031 298.889 105.985L314.164 110.677C316.279 111.329 316.302 114.306 314.199 114.986L298.992 119.907C295.906 120.907 293.5 123.353 292.545 126.456L287.854 141.726C287.208 143.84 284.225 143.863 283.545 141.76Z" fill="#FAFAFA"/>
    <path fill-rule="evenodd" clip-rule="evenodd" d="M17.5967 190.432C22.1971 181.42 31.295 174.63 40.7473 170.339C50.2967 166.092 60.7948 163.487 71.1043 162.641C91.9175 160.761 112.194 164.241 130.664 170.259C140.179 173.093 148.694 177.031 157.489 181.008C161.764 183.065 165.781 185.397 169.919 187.649L181.348 194.272C193.898 201.964 206.065 208.776 217.494 214.068C228.953 219.314 239.308 222.863 249.069 224.675C258.829 226.509 268.75 226.486 280.951 223.686C293.055 220.949 306.674 215.045 320.909 207.473C335.23 199.895 349.918 190.603 366.673 181.522C364.993 200.501 359.621 218.297 351.232 235.481C342.637 252.46 330.682 269.022 313.251 282.434C296.153 295.955 272.671 305.379 248.766 306.796C224.849 308.414 202.099 303.145 182.743 295.218C163.312 287.178 146.522 276.611 131.641 264.947C127.532 261.724 125.326 259.895 122.292 257.329L113.817 249.906C108.108 245.437 102.576 240.093 96.9237 235.664C85.6484 226.241 74.4931 216.8 62.2635 208.616C56.0972 204.456 49.7367 200.598 42.5246 197.181C38.9414 195.529 35.1354 193.992 31.0493 192.781C26.8661 191.415 22.6143 190.603 17.5967 190.432Z" fill="#FF4F0A"/>
    <path fill-rule="evenodd" clip-rule="evenodd" d="M17.5967 190.432C19.9455 170.904 29.0491 152.588 43.639 136.998C58.1546 121.557 80.8308 109.653 105.993 108.076C118.411 107.247 131.018 108.63 142.608 111.842C154.146 115.042 164.958 119.705 174.702 125.197C179.571 127.957 184.126 130.975 188.663 134.021L200.756 143.176L219.632 158.069C231.884 167.824 243.577 176.847 254.383 184.3C265.293 191.763 274.585 197.215 283.46 200.41C292.255 203.896 303.365 204.787 318.052 201.095C325.344 199.415 332.95 196.346 341.065 193.02C349.135 189.614 357.512 185.551 366.673 181.522C365.57 191.34 363.576 201.118 359.787 210.256C356.147 219.52 351.352 228.583 344.648 237.036C341.22 241.15 337.545 245.288 333.259 249.105C328.973 252.831 324.224 256.369 318.978 259.472C308.514 265.535 296.101 269.964 283.369 271.542C270.636 273.142 257.852 272.342 246.211 269.873C234.507 267.473 223.844 263.604 214.054 259.135C194.544 250.06 178.222 238.653 163.792 226.578C156.546 220.548 149.751 214.251 143.316 207.856L135.716 200.227C133.424 198.015 131.11 195.792 128.818 193.758C119.583 185.591 111.011 179.351 101.57 175.459C92.1976 171.384 80.2022 169.71 65.4866 172.464C50.8282 175.19 34.7468 181.528 17.5967 190.432Z" fill="#FAFAFA"/>
    <path fill-rule="evenodd" clip-rule="evenodd" d="M94.9299 291.13C94.9299 296.908 90.2438 301.594 84.4662 301.594C78.6885 301.594 74.0081 296.908 74.0081 291.13C74.0081 285.352 78.6885 280.666 84.4662 280.666C90.2438 280.666 94.9299 285.352 94.9299 291.13Z" fill="#FAFAFA"/>
    <path fill-rule="evenodd" clip-rule="evenodd" d="M94.9299 291.13C94.9299 296.908 90.2438 301.594 84.4662 301.594C78.6885 301.594 74.0081 296.908 74.0081 291.13C74.0081 285.352 78.6885 280.666 84.4662 280.666C90.2438 280.666 94.9299 285.352 94.9299 291.13Z" fill="#FAFAFA"/>
</svg>
