<svg width="241" height="49" viewBox="0 0 241 49" fill="none" xmlns="http://www.w3.org/2000/svg">
<path fill-rule="evenodd" clip-rule="evenodd" d="M48.0126 24.0059C48.0126 37.2642 37.2649 48.0119 24.0066 48.0119C10.7484 48.0119 0 37.2642 0 24.0059C0 10.7477 10.7484 0 24.0066 0C37.2649 0 48.0126 10.7477 48.0126 24.0059Z" fill="#29296E"/>
<path fill-rule="evenodd" clip-rule="evenodd" d="M35.1775 17.5873L34.5671 15.7013C34.443 15.3178 34.1403 15.0193 33.7553 14.9016L31.8601 14.3188C31.5978 14.2387 31.5957 13.8686 31.8559 13.7842L33.7425 13.1738C34.1254 13.0497 34.4239 12.7469 34.5423 12.362L35.1244 10.4668C35.2045 10.2052 35.5746 10.2023 35.6589 10.4633L36.2694 12.3492C36.3935 12.732 36.6962 13.0305 37.0812 13.1489L38.9763 13.731C39.2387 13.8119 39.2415 14.1812 38.9806 14.2656L37.0939 14.8761C36.7111 15.0001 36.4126 15.3036 36.2942 15.6886L35.7121 17.583C35.632 17.8453 35.2619 17.8482 35.1775 17.5873Z" fill="#FAFAFA"/>
<path fill-rule="evenodd" clip-rule="evenodd" d="M2.18311 23.6256C2.75385 22.5075 3.88257 21.6652 5.05525 21.1327C6.23999 20.6059 7.54241 20.2826 8.82144 20.1777C11.4036 19.9445 13.9191 20.3762 16.2106 21.1228C17.3911 21.4745 18.4475 21.963 19.5386 22.4564C20.069 22.7117 20.5674 23.0009 21.0807 23.2803L22.4987 24.102C24.0557 25.0563 25.5651 25.9014 26.9831 26.558C28.4047 27.2088 29.6894 27.6491 30.9003 27.8739C32.1113 28.1015 33.3421 28.0986 34.8558 27.7512C36.3575 27.4116 38.047 26.6792 39.8131 25.7398C41.5899 24.7997 43.412 23.6468 45.4908 22.5202C45.2823 24.8748 44.6159 27.0826 43.5751 29.2146C42.5087 31.321 41.0255 33.3757 38.8631 35.0397C36.7417 36.7172 33.8285 37.8863 30.8627 38.0622C27.8956 38.2628 25.0731 37.6091 22.6717 36.6257C20.2611 35.6282 18.1781 34.3172 16.3319 32.8702C15.8221 32.4703 15.5484 32.2434 15.1719 31.9251L14.1205 31.0041C13.4122 30.4497 12.7259 29.7868 12.0247 29.2373C10.6258 28.0681 9.24188 26.8969 7.72463 25.8816C6.95962 25.3654 6.1705 24.8869 5.27575 24.4629C4.83121 24.258 4.35902 24.0673 3.85208 23.917C3.3331 23.7475 2.8056 23.6468 2.18311 23.6256Z" fill="#FF4F0A"/>
<path fill-rule="evenodd" clip-rule="evenodd" d="M2.18311 23.6256C2.4745 21.203 3.60394 18.9306 5.41401 16.9965C7.21486 15.0808 10.0282 13.6039 13.1499 13.4082C14.6905 13.3054 16.2546 13.477 17.6924 13.8755C19.1239 14.2725 20.4653 14.851 21.6741 15.5324C22.2782 15.8748 22.8433 16.2492 23.4062 16.6271L24.9065 17.7629L27.2483 19.6105C28.7684 20.8208 30.219 21.9403 31.5597 22.8648C32.9132 23.7908 34.066 24.4672 35.1671 24.8635C36.2582 25.296 37.6365 25.4066 39.4586 24.9486C40.3633 24.7401 41.307 24.3594 42.3138 23.9468C43.3149 23.5242 44.3542 23.0201 45.4908 22.5203C45.3539 23.7383 45.1065 24.9514 44.6364 26.0851C44.1848 27.2344 43.59 28.3589 42.7583 29.4075C42.3329 29.9179 41.877 30.4313 41.3453 30.9049C40.8135 31.3671 40.2243 31.806 39.5735 32.191C38.2753 32.9432 36.7354 33.4927 35.1557 33.6884C33.5761 33.8869 31.99 33.7876 30.5458 33.4814C29.0938 33.1836 27.7708 32.7036 26.5563 32.1492C24.1358 31.0233 22.1109 29.6081 20.3207 28.11C19.4217 27.362 18.5787 26.5807 17.7803 25.7873L16.8374 24.8408C16.5531 24.5664 16.2659 24.2906 15.9816 24.0382C14.8359 23.0251 13.7724 22.2508 12.6011 21.768C11.4384 21.2625 9.95017 21.0548 8.1245 21.3965C6.30592 21.7347 4.31081 22.521 2.18311 23.6256Z" fill="#FAFAFA"/>
<path fill-rule="evenodd" clip-rule="evenodd" d="M11.7773 36.1186C11.7773 36.8354 11.196 37.4168 10.4792 37.4168C9.76237 37.4168 9.1817 36.8354 9.1817 36.1186C9.1817 35.4018 9.76237 34.8204 10.4792 34.8204C11.196 34.8204 11.7773 35.4018 11.7773 36.1186Z" fill="#FAFAFA"/>
<path fill-rule="evenodd" clip-rule="evenodd" d="M11.7773 36.1186C11.7773 36.8354 11.196 37.4168 10.4792 37.4168C9.76237 37.4168 9.1817 36.8354 9.1817 36.1186C9.1817 35.4018 9.76237 34.8204 10.4792 34.8204C11.196 34.8204 11.7773 35.4018 11.7773 36.1186Z" fill="#FAFAFA"/>
<path fill-rule="evenodd" clip-rule="evenodd" d="M83.8036 24.661C82.9301 24.0917 81.3447 23.3735 79.0476 22.5064C76.7497 21.6393 75.1552 20.8608 74.2626 20.171C73.3707 19.4811 72.924 18.5282 72.924 17.313C72.924 16.0978 73.3763 15.1392 74.2817 14.4366C75.1864 13.734 76.3796 13.383 77.8607 13.383C79.3418 13.383 80.5471 13.785 81.4773 14.5883C82.4082 15.3923 82.8733 16.5345 82.8733 18.0156H86.4999C86.4999 15.4717 85.6576 13.4809 83.9744 12.0444C82.2905 10.608 80.2628 9.8898 77.8891 9.8898C75.5161 9.8898 73.4997 10.557 71.8421 11.8927C70.1837 13.2285 69.3549 15.0222 69.3549 17.2754C69.3549 19.0224 69.7846 20.4078 70.646 21.4337C71.1012 21.9775 71.5379 22.4369 71.9555 22.8099C72.3738 23.1835 73.253 23.6961 74.5951 24.3477C75.9365 24.9999 77.0759 25.4395 78.0125 25.6671C79.8154 26.4413 81.2937 27.0723 82.2374 27.7558C83.1796 28.4393 83.6518 29.3794 83.6518 30.5755C83.6518 31.7716 83.1612 32.7372 82.1799 33.471C81.1994 34.2049 79.8452 34.5721 78.1174 34.5721C76.3896 34.5721 74.9808 34.1389 73.8925 33.2718C72.8035 32.4047 72.2597 31.1675 72.2597 29.5595H68.6523C68.6523 32.2558 69.5789 34.3573 71.4337 35.8632C73.2877 37.3698 75.5253 38.1228 78.1458 38.1228C80.7655 38.1228 82.9428 37.4329 84.677 36.0532C86.4112 34.6735 87.2684 32.794 87.25 30.4138C87.2308 28.0345 86.0823 26.1166 83.8036 24.661Z" fill="#FAFAF5"/>
<path fill-rule="evenodd" clip-rule="evenodd" d="M107.816 10.6549H89.9186V14.0581H97.0816V37.6152H100.616V14.0581H107.816V10.6549Z" fill="#FAFAF5"/>
<path fill-rule="evenodd" clip-rule="evenodd" d="M117.141 10.6549L107.196 37.6152H111.012C111.012 37.6152 111.981 34.6155 112.768 33.3889C116.184 28.0636 121.865 27.4142 123.69 27.4631L127.331 37.6152H131.148L121.183 10.6549H117.141ZM114.973 26.5712L119.172 14.8663L122.462 24.0379C120.586 24.1755 117.851 24.7398 114.973 26.5712Z" fill="#FAFAF5"/>
<path fill-rule="evenodd" clip-rule="evenodd" d="M177.716 10.6549H173.317L162.074 22.8752V10.6549H158.502V37.6152H162.074V24.6803L173.712 37.6152H178.092L165.815 23.7969L177.716 10.6549Z" fill="#FAFAF5"/>
<path fill-rule="evenodd" clip-rule="evenodd" d="M195.445 27.2934L184.935 10.6547H180.893V37.615H186.214V20.9387L196.686 37.615H200.728V10.6547H195.445V27.2934Z" fill="#FAFAF5"/>
<path fill-rule="evenodd" clip-rule="evenodd" d="M209.336 26.485H218.85V21.522H209.336V15.75H219.808V10.6552H204.016V37.6148H219.996V32.5391H209.336V26.485Z" fill="#FAFAF5"/>
<path fill-rule="evenodd" clip-rule="evenodd" d="M222.726 10.6547V15.7502H229.193V37.615H234.496V15.7502H241V10.6547H222.726Z" fill="#FAFAF5"/>
<path fill-rule="evenodd" clip-rule="evenodd" d="M147.325 27.9093C146.781 27.4059 146.229 26.9685 145.675 26.5835C147.413 26.3269 149.287 25.3768 150.493 23.834C151.592 22.4281 152.072 20.7882 152.072 19.0213C152.072 16.7022 151.251 14.7284 149.609 13.0991C147.967 11.4698 145.993 10.6552 143.687 10.6552H133.873V37.6148H137.445V27.4478C139.398 27.4932 142.303 27.9859 144.973 30.4532C147.533 32.8227 149.302 35.7664 150.213 37.6134H154.007C153.221 35.5729 150.97 31.2799 147.325 27.9093ZM143.687 14.0201C145.016 14.0201 146.15 14.5065 147.09 15.4771C148.03 16.4484 148.5 17.6268 148.5 19.0114C148.5 20.3968 148.044 21.5986 147.09 22.5741C145.388 24.314 141.454 23.9673 137.551 23.985C137.515 23.9843 137.48 23.9829 137.445 23.9822V14.0201H143.687Z" fill="#FAFAF5"/>
</svg>
